<svg width="28" height="28" viewBox="0 0 28 28" fill="none" xmlns="http://www.w3.org/2000/svg">
<path d="M2 27.5C1.17157 27.5 0.5 26.8284 0.5 26L0.499999 2C0.499999 1.17157 1.17157 0.5 2 0.5L24 0.499999C25.933 0.499999 27.5 2.067 27.5 4L27.5 24C27.5 25.933 25.933 27.5 24 27.5L2 27.5Z" fill="white"/>
<path d="M18.5475 11.8484C18.2122 11.5167 17.6706 11.5167 17.3353 11.8484L13.9995 15.148L10.6637 11.8484C10.3284 11.5167 9.78682 11.5167 9.45152 11.8484C9.11623 12.18 9.11623 12.7158 9.45152 13.0474L13.3977 16.9509C13.733 17.2825 14.2746 17.2825 14.6099 16.9509L18.5561 13.0474C18.8828 12.7243 18.8828 12.18 18.5475 11.8484Z" fill="#2D2B2A"/>
</svg>
